<svg width="21" height="21" viewBox="0 0 21 21" fill="none" xmlns="http://www.w3.org/2000/svg">
<path d="M12.7913 10.5001L19.7788 3.52881C20.0848 3.22281 20.2567 2.8078 20.2567 2.37506C20.2567 1.94232 20.0848 1.5273 19.7788 1.22131C19.4728 0.915314 19.0578 0.743408 18.625 0.743408C18.1923 0.743408 17.7773 0.915314 17.4713 1.22131L10.5 8.20881L3.52877 1.22131C3.22278 0.915314 2.80776 0.743408 2.37502 0.743408C1.94228 0.743408 1.52727 0.915314 1.22127 1.22131C0.915279 1.5273 0.743374 1.94232 0.743374 2.37506C0.743374 2.8078 0.915279 3.22281 1.22127 3.52881L8.20877 10.5001L1.22127 17.4713C1.06896 17.6224 0.948074 17.8021 0.865575 18.0001C0.783076 18.1981 0.740601 18.4105 0.740601 18.6251C0.740601 18.8396 0.783076 19.052 0.865575 19.25C0.948074 19.448 1.06896 19.6277 1.22127 19.7788C1.37234 19.9311 1.55206 20.052 1.75009 20.1345C1.94811 20.217 2.1605 20.2595 2.37502 20.2595C2.58954 20.2595 2.80194 20.217 2.99996 20.1345C3.19798 20.052 3.37771 19.9311 3.52877 19.7788L10.5 12.7913L17.4713 19.7788C17.6223 19.9311 17.8021 20.052 18.0001 20.1345C18.1981 20.217 18.4105 20.2595 18.625 20.2595C18.8395 20.2595 19.0519 20.217 19.25 20.1345C19.448 20.052 19.6277 19.9311 19.7788 19.7788C19.9311 19.6277 20.052 19.448 20.1345 19.25C20.217 19.052 20.2594 18.8396 20.2594 18.6251C20.2594 18.4105 20.217 18.1981 20.1345 18.0001C20.052 17.8021 19.9311 17.6224 19.7788 17.4713L12.7913 10.5001Z" fill="#39515E"/>
</svg>
